<svg width="214" height="80" viewBox="0 0 214 80" fill="none" xmlns="http://www.w3.org/2000/svg">
<path d="M33.5996 27.4H1.59961L5.79961 20.8H52.8996V27.4H41.6996V55.7H33.5996V27.4Z" fill="#0A60F9"/>
<path d="M87.2002 49.2V55.7H60.2002V20.8H86.6002V27.3H68.2002V34.9H84.4002V41.2H68.2002V49.3H87.2002V49.2Z" fill="#0A60F9"/>
<path d="M128.6 20.8V55.7H122L104.6 34.5V55.7H96.5996V20.8H103.3L120.6 42V20.8H128.6Z" fill="#0A60F9"/>
<path d="M143.6 52.2C140.8 49.4 139.4 45.5 139.4 40.4V20.8H147.5V40.1C147.5 46.4 150.1 49.5 155.3 49.5C157.8 49.5 159.8 48.7 161.1 47.2C162.4 45.7 163.1 43.3 163.1 40.1V20.8H171.1V40.4C171.1 45.5 169.7 49.5 166.9 52.2C164.1 55 160.2 56.3 155.2 56.3C150.3 56.3 146.4 54.9 143.6 52.2Z" fill="#0A60F9"/>
<path d="M203.5 55.7L195 43.6L178.4 68.2H169.1L190.4 38L178.1 20.8H187.3L195.3 32.1L203.2 20.8H211.9L199.7 37.7L212.7 55.8H203.5V55.7Z" fill="#EBEF28"/>
</svg>
